M48
; DRILL file {KiCad 5.1.6-c6e7f7d~87~ubuntu20.04.1} date Thu Aug 20 18:56:17 2020
; FORMAT={-:-/ absolute / inch / decimal}
; #@! TF.CreationDate,2020-08-20T18:56:17-06:00
; #@! TF.GenerationSoftware,Kicad,Pcbnew,5.1.6-c6e7f7d~87~ubuntu20.04.1
; #@! TF.FileFunction,Plated,1,2,PTH
FMAT,2
INCH
T1C0.0100
T2C0.0157
T3C0.0236
T4C0.0300
T5C0.0335
T6C0.0394
T7C0.0827
%
G90
G05
T1
X4.4685Y-2.4606
X4.4858Y-2.4189
X4.4858Y-2.5024
X4.5276Y-2.4016
X4.5276Y-2.5197
X4.5693Y-2.4189
X4.5693Y-2.5024
X4.5866Y-2.4606
T2
X4.0786Y-3.7867
X4.1002Y-2.185
X4.187Y-2.1024
X4.1998Y-3.9035
X4.2165Y-4.122
X4.378Y-3.878
X4.378Y-4.1299
X4.4281Y-4.1033
X4.4764Y-4.1299
X4.4803Y-3.878
X4.5718Y-3.7923
X4.5776Y-3.8791
X4.5787Y-4.1299
X4.6191Y-3.8209
X4.6289Y-4.1033
X4.6309Y-3.9045
X4.6392Y-3.9539
X4.6392Y-4.0539
X4.6772Y-3.8819
X4.6772Y-4.1299
X4.872Y-2.0965
X4.9545Y-2.1786
X4.997Y-2.2539
X4.3661Y-1.9921
X4.4921Y-1.9921
X4.563Y-1.9921
X4.689Y-1.9921
T4
X5.0394Y-3.3366
X5.0394Y-3.7303
X4.0157Y-3.3366
X4.0157Y-3.7303
X4.9114Y-3.3366
X4.9114Y-3.7303
X4.1437Y-3.3366
X4.1437Y-3.7303
X4.3996Y-3.3366
X4.3996Y-3.7303
X4.6555Y-3.3366
X4.6555Y-3.7303
X4.2717Y-3.3366
X4.2717Y-3.7303
X4.7835Y-3.3366
X4.7835Y-3.7303
X4.5276Y-3.3366
X4.5276Y-3.7303
T5
X4.1019Y-3.937
X4.1019Y-4.1339
T6
X4.9374Y-3.8811
X4.9374Y-3.9811
X4.9374Y-4.0811
X4.9374Y-4.1811
X5.0374Y-3.8811
X5.0374Y-3.9811
X5.0374Y-4.0811
X5.0374Y-4.1811
T7
X4.5276Y-2.4606
X4.5276Y-2.4606
T3
G00X3.9818Y-3.8976
M15
G01X4.0094Y-3.8976
M16
G05
G00X4.0094Y-4.1732
M15
G01X3.9818Y-4.1732
M16
G05
T0
M30
