%TF.GenerationSoftware,KiCad,Pcbnew,5.1.6-c6e7f7d~87~ubuntu20.04.1*%
%TF.CreationDate,2020-08-20T18:56:20-06:00*%
%TF.ProjectId,decade,64656361-6465-42e6-9b69-6361645f7063,rev?*%
%TF.SameCoordinates,Original*%
%TF.FileFunction,Legend,Bot*%
%TF.FilePolarity,Positive*%
%FSLAX46Y46*%
G04 Gerber Fmt 4.6, Leading zero omitted, Abs format (unit mm)*
G04 Created by KiCad (PCBNEW 5.1.6-c6e7f7d~87~ubuntu20.04.1) date 2020-08-20 18:56:20*
%MOMM*%
%LPD*%
G01*
G04 APERTURE LIST*
%ADD10C,0.120000*%
%ADD11C,0.100000*%
%ADD12C,0.150000*%
G04 APERTURE END LIST*
D10*
%TO.C,D2*%
X116250000Y-51550000D02*
X116650000Y-51550000D01*
X115750000Y-51550000D02*
X115250000Y-51550000D01*
X115750000Y-51850000D02*
X115750000Y-51250000D01*
D11*
G36*
X116250000Y-51250000D02*
G01*
X115850000Y-51550000D01*
X116250000Y-51850000D01*
X116250000Y-51250000D01*
G37*
X116250000Y-51250000D02*
X115850000Y-51550000D01*
X116250000Y-51850000D01*
X116250000Y-51250000D01*
D10*
%TO.C,D1*%
X113750000Y-51550000D02*
X113350000Y-51550000D01*
X114250000Y-51550000D02*
X114750000Y-51550000D01*
X114250000Y-51250000D02*
X114250000Y-51850000D01*
D11*
G36*
X113750000Y-51850000D02*
G01*
X114150000Y-51550000D01*
X113750000Y-51250000D01*
X113750000Y-51850000D01*
G37*
X113750000Y-51850000D02*
X114150000Y-51550000D01*
X113750000Y-51250000D01*
X113750000Y-51850000D01*
%TO.C,D2*%
D10*
X119390476Y-52061904D02*
X119390476Y-51261904D01*
X119200000Y-51261904D01*
X119085714Y-51300000D01*
X119009523Y-51376190D01*
X118971428Y-51452380D01*
X118933333Y-51604761D01*
X118933333Y-51719047D01*
X118971428Y-51871428D01*
X119009523Y-51947619D01*
X119085714Y-52023809D01*
X119200000Y-52061904D01*
X119390476Y-52061904D01*
X118628571Y-51338095D02*
X118590476Y-51300000D01*
X118514285Y-51261904D01*
X118323809Y-51261904D01*
X118247619Y-51300000D01*
X118209523Y-51338095D01*
X118171428Y-51414285D01*
X118171428Y-51490476D01*
X118209523Y-51604761D01*
X118666666Y-52061904D01*
X118171428Y-52061904D01*
%TO.C,D1*%
X111740476Y-52061904D02*
X111740476Y-51261904D01*
X111550000Y-51261904D01*
X111435714Y-51300000D01*
X111359523Y-51376190D01*
X111321428Y-51452380D01*
X111283333Y-51604761D01*
X111283333Y-51719047D01*
X111321428Y-51871428D01*
X111359523Y-51947619D01*
X111435714Y-52023809D01*
X111550000Y-52061904D01*
X111740476Y-52061904D01*
X110521428Y-52061904D02*
X110978571Y-52061904D01*
X110750000Y-52061904D02*
X110750000Y-51261904D01*
X110826190Y-51376190D01*
X110902380Y-51452380D01*
X110978571Y-51490476D01*
%TO.C,J2*%
D12*
X115333333Y-104552380D02*
X115333333Y-105266666D01*
X115380952Y-105409523D01*
X115476190Y-105504761D01*
X115619047Y-105552380D01*
X115714285Y-105552380D01*
X114904761Y-104647619D02*
X114857142Y-104600000D01*
X114761904Y-104552380D01*
X114523809Y-104552380D01*
X114428571Y-104600000D01*
X114380952Y-104647619D01*
X114333333Y-104742857D01*
X114333333Y-104838095D01*
X114380952Y-104980952D01*
X114952380Y-105552380D01*
X114333333Y-105552380D01*
%TD*%
M02*
