%TF.GenerationSoftware,KiCad,Pcbnew,5.1.6-c6e7f7d~87~ubuntu20.04.1*%
%TF.CreationDate,2020-08-20T18:56:20-06:00*%
%TF.ProjectId,decade,64656361-6465-42e6-9b69-6361645f7063,rev?*%
%TF.SameCoordinates,Original*%
%TF.FileFunction,Soldermask,Bot*%
%TF.FilePolarity,Negative*%
%FSLAX46Y46*%
G04 Gerber Fmt 4.6, Leading zero omitted, Abs format (unit mm)*
G04 Created by KiCad (PCBNEW 5.1.6-c6e7f7d~87~ubuntu20.04.1) date 2020-08-20 18:56:20*
%MOMM*%
%LPD*%
G01*
G04 APERTURE LIST*
%ADD10C,0.050000*%
%ADD11C,0.700000*%
%ADD12O,1.700000X1.700000*%
%ADD13R,1.700000X1.700000*%
%ADD14O,1.900000X1.200000*%
%ADD15C,1.450000*%
%ADD16C,1.170000*%
%ADD17R,2.220000X1.020000*%
%ADD18C,1.190000*%
%ADD19C,4.000000*%
%ADD20C,2.000000*%
G04 APERTURE END LIST*
D10*
%TO.C,D2*%
G36*
X116950000Y-50100000D02*
G01*
X115900000Y-50100000D01*
X115900000Y-51100000D01*
X116950000Y-51100000D01*
X116950000Y-50100000D01*
G37*
X116950000Y-50100000D02*
X115900000Y-50100000D01*
X115900000Y-51100000D01*
X116950000Y-51100000D01*
X116950000Y-50100000D01*
G36*
X119100000Y-50100000D02*
G01*
X118050000Y-50100000D01*
X118050000Y-51100000D01*
X119100000Y-51100000D01*
X119100000Y-50100000D01*
G37*
X119100000Y-50100000D02*
X118050000Y-50100000D01*
X118050000Y-51100000D01*
X119100000Y-51100000D01*
X119100000Y-50100000D01*
%TO.C,D1*%
G36*
X113050000Y-51100000D02*
G01*
X114100000Y-51100000D01*
X114100000Y-50100000D01*
X113050000Y-50100000D01*
X113050000Y-51100000D01*
G37*
X113050000Y-51100000D02*
X114100000Y-51100000D01*
X114100000Y-50100000D01*
X113050000Y-50100000D01*
X113050000Y-51100000D01*
G36*
X110900000Y-51100000D02*
G01*
X111950000Y-51100000D01*
X111950000Y-50100000D01*
X110900000Y-50100000D01*
X110900000Y-51100000D01*
G37*
X110900000Y-51100000D02*
X111950000Y-51100000D01*
X111950000Y-50100000D01*
X110900000Y-50100000D01*
X110900000Y-51100000D01*
%TD*%
D11*
%TO.C,D2*%
X115900000Y-50600000D03*
X119100000Y-50600000D03*
%TD*%
%TO.C,D1*%
X114100000Y-50600000D03*
X110900000Y-50600000D03*
%TD*%
D12*
%TO.C,J4*%
X125410000Y-98580000D03*
X127950000Y-98580000D03*
X125410000Y-101120000D03*
X127950000Y-101120000D03*
X125410000Y-103660000D03*
X127950000Y-103660000D03*
X125410000Y-106200000D03*
D13*
X127950000Y-106200000D03*
%TD*%
D14*
%TO.C,J3*%
X101487500Y-106000000D03*
X101487500Y-99000000D03*
D15*
X104187500Y-105000000D03*
X104187500Y-100000000D03*
%TD*%
D16*
%TO.C,J2*%
X115000000Y-101700000D03*
D17*
X117835000Y-102970000D03*
X112185000Y-102970000D03*
X117835000Y-100430000D03*
X112185000Y-100430000D03*
%TD*%
D18*
%TO.C,J1*%
X117540000Y-101700000D03*
X112460000Y-101700000D03*
%TD*%
D19*
%TO.C,SW1*%
X115000000Y-62500000D03*
%TD*%
D20*
%TO.C,2.1MM*%
X109000000Y-81000000D03*
%TD*%
%TO.C,2.1MM*%
X121000000Y-81000000D03*
%TD*%
%TO.C,R1*%
X128000000Y-94750000D03*
X128000000Y-84750000D03*
%TD*%
%TO.C,R2*%
X124750000Y-84750000D03*
X124750000Y-94750000D03*
%TD*%
%TO.C,R3*%
X121500000Y-94750000D03*
X121500000Y-84750000D03*
%TD*%
%TO.C,R4*%
X118250000Y-84750000D03*
X118250000Y-94750000D03*
%TD*%
%TO.C,R5*%
X115000000Y-94750000D03*
X115000000Y-84750000D03*
%TD*%
%TO.C,R6*%
X111750000Y-84750000D03*
X111750000Y-94750000D03*
%TD*%
%TO.C,R7*%
X108500000Y-94750000D03*
X108500000Y-84750000D03*
%TD*%
%TO.C,R8*%
X105250000Y-84750000D03*
X105250000Y-94750000D03*
%TD*%
%TO.C,R9*%
X102000000Y-94750000D03*
X102000000Y-84750000D03*
%TD*%
M02*
