%TF.GenerationSoftware,KiCad,Pcbnew,5.1.6-c6e7f7d~87~ubuntu20.04.1*%
%TF.CreationDate,2020-08-20T18:56:20-06:00*%
%TF.ProjectId,decade,64656361-6465-42e6-9b69-6361645f7063,rev?*%
%TF.SameCoordinates,Original*%
%TF.FileFunction,Copper,L2,Bot*%
%TF.FilePolarity,Positive*%
%FSLAX46Y46*%
G04 Gerber Fmt 4.6, Leading zero omitted, Abs format (unit mm)*
G04 Created by KiCad (PCBNEW 5.1.6-c6e7f7d~87~ubuntu20.04.1) date 2020-08-20 18:56:20*
%MOMM*%
%LPD*%
G01*
G04 APERTURE LIST*
%TA.AperFunction,EtchedComponent*%
%ADD10C,0.050000*%
%TD*%
%TA.AperFunction,ComponentPad*%
%ADD11C,0.700000*%
%TD*%
%TA.AperFunction,ComponentPad*%
%ADD12O,1.700000X1.700000*%
%TD*%
%TA.AperFunction,ComponentPad*%
%ADD13R,1.700000X1.700000*%
%TD*%
%TA.AperFunction,ComponentPad*%
%ADD14O,1.900000X1.200000*%
%TD*%
%TA.AperFunction,ComponentPad*%
%ADD15C,1.450000*%
%TD*%
%TA.AperFunction,SMDPad,CuDef*%
%ADD16R,2.220000X1.020000*%
%TD*%
%TA.AperFunction,ViaPad*%
%ADD17C,0.300000*%
%TD*%
%TA.AperFunction,ComponentPad*%
%ADD18C,4.000000*%
%TD*%
%TA.AperFunction,ComponentPad*%
%ADD19C,2.000000*%
%TD*%
%TA.AperFunction,ViaPad*%
%ADD20C,0.800000*%
%TD*%
%TA.AperFunction,Conductor*%
%ADD21C,0.250000*%
%TD*%
G04 APERTURE END LIST*
D10*
%TO.C,D2*%
G36*
X116950000Y-50100000D02*
G01*
X115900000Y-50100000D01*
X115900000Y-51100000D01*
X116950000Y-51100000D01*
X116950000Y-50100000D01*
G37*
X116950000Y-50100000D02*
X115900000Y-50100000D01*
X115900000Y-51100000D01*
X116950000Y-51100000D01*
X116950000Y-50100000D01*
G36*
X119100000Y-50100000D02*
G01*
X118050000Y-50100000D01*
X118050000Y-51100000D01*
X119100000Y-51100000D01*
X119100000Y-50100000D01*
G37*
X119100000Y-50100000D02*
X118050000Y-50100000D01*
X118050000Y-51100000D01*
X119100000Y-51100000D01*
X119100000Y-50100000D01*
%TO.C,D1*%
G36*
X113050000Y-51100000D02*
G01*
X114100000Y-51100000D01*
X114100000Y-50100000D01*
X113050000Y-50100000D01*
X113050000Y-51100000D01*
G37*
X113050000Y-51100000D02*
X114100000Y-51100000D01*
X114100000Y-50100000D01*
X113050000Y-50100000D01*
X113050000Y-51100000D01*
G36*
X110900000Y-51100000D02*
G01*
X111950000Y-51100000D01*
X111950000Y-50100000D01*
X110900000Y-50100000D01*
X110900000Y-51100000D01*
G37*
X110900000Y-51100000D02*
X111950000Y-51100000D01*
X111950000Y-50100000D01*
X110900000Y-50100000D01*
X110900000Y-51100000D01*
%TD*%
D11*
%TO.P,D2,1*%
%TO.N,GND*%
X115900000Y-50600000D03*
%TO.P,D2,2*%
%TO.N,Net-(D2-Pad2)*%
X119100000Y-50600000D03*
%TD*%
%TO.P,D1,1*%
%TO.N,GND*%
X114100000Y-50600000D03*
%TO.P,D1,2*%
%TO.N,Net-(D1-Pad2)*%
X110900000Y-50600000D03*
%TD*%
D12*
%TO.P,J4,8*%
%TO.N,/THRU*%
X125410000Y-98580000D03*
%TO.P,J4,7*%
%TO.N,/IN*%
X127950000Y-98580000D03*
%TO.P,J4,6*%
%TO.N,/THRU*%
X125410000Y-101120000D03*
%TO.P,J4,5*%
%TO.N,/IN*%
X127950000Y-101120000D03*
%TO.P,J4,4*%
%TO.N,/THRU*%
X125410000Y-103660000D03*
%TO.P,J4,3*%
%TO.N,/IN*%
X127950000Y-103660000D03*
%TO.P,J4,2*%
%TO.N,/THRU*%
X125410000Y-106200000D03*
D13*
%TO.P,J4,1*%
%TO.N,/IN*%
X127950000Y-106200000D03*
%TD*%
D14*
%TO.P,J3,6*%
%TO.N,GND*%
X101487500Y-106000000D03*
X101487500Y-99000000D03*
D15*
X104187500Y-105000000D03*
X104187500Y-100000000D03*
%TD*%
D16*
%TO.P,J2,4*%
%TO.N,GND*%
X117835000Y-102970000D03*
%TO.P,J2,3*%
%TO.N,/THRU*%
X112185000Y-102970000D03*
%TO.P,J2,2*%
%TO.N,+5V*%
X117835000Y-100430000D03*
%TO.P,J2,1*%
%TO.N,/OUT*%
X112185000Y-100430000D03*
%TD*%
D17*
%TO.N,/IN*%
%TO.C,SW1*%
X115000000Y-61000000D03*
X113939000Y-63561000D03*
X116061000Y-63561000D03*
X116061000Y-61439000D03*
X113500000Y-62500000D03*
X115000000Y-64000000D03*
X116500000Y-62500000D03*
X113939000Y-61439000D03*
D18*
%TD*%
%TO.P,SW1,C*%
%TO.N,/IN*%
X115000000Y-62500000D03*
D19*
%TO.P,R1,2*%
%TO.N,/OUT*%
X128000000Y-94750000D03*
%TO.P,R1,1*%
%TO.N,Net-(R1-Pad1)*%
X128000000Y-84750000D03*
%TD*%
%TO.P,R2,2*%
%TO.N,Net-(R1-Pad1)*%
X124750000Y-84750000D03*
%TO.P,R2,1*%
%TO.N,Net-(R2-Pad1)*%
X124750000Y-94750000D03*
%TD*%
%TO.P,R3,2*%
%TO.N,Net-(R2-Pad1)*%
X121500000Y-94750000D03*
%TO.P,R3,1*%
%TO.N,Net-(R3-Pad1)*%
X121500000Y-84750000D03*
%TD*%
%TO.P,R4,2*%
%TO.N,Net-(R3-Pad1)*%
X118250000Y-84750000D03*
%TO.P,R4,1*%
%TO.N,Net-(R4-Pad1)*%
X118250000Y-94750000D03*
%TD*%
%TO.P,R5,2*%
%TO.N,Net-(R4-Pad1)*%
X115000000Y-94750000D03*
%TO.P,R5,1*%
%TO.N,Net-(R5-Pad1)*%
X115000000Y-84750000D03*
%TD*%
%TO.P,R6,2*%
%TO.N,Net-(R5-Pad1)*%
X111750000Y-84750000D03*
%TO.P,R6,1*%
%TO.N,Net-(R6-Pad1)*%
X111750000Y-94750000D03*
%TD*%
%TO.P,R7,2*%
%TO.N,Net-(R6-Pad1)*%
X108500000Y-94750000D03*
%TO.P,R7,1*%
%TO.N,Net-(R7-Pad1)*%
X108500000Y-84750000D03*
%TD*%
%TO.P,R8,2*%
%TO.N,Net-(R7-Pad1)*%
X105250000Y-84750000D03*
%TO.P,R8,1*%
%TO.N,Net-(R8-Pad1)*%
X105250000Y-94750000D03*
%TD*%
%TO.P,R9,2*%
%TO.N,Net-(R8-Pad1)*%
X102000000Y-94750000D03*
%TO.P,R9,1*%
%TO.N,Net-(R9-Pad1)*%
X102000000Y-84750000D03*
%TD*%
D20*
%TO.N,/OUT*%
X126925010Y-57250000D03*
X116124990Y-96324990D03*
%TO.N,/IN*%
X113800000Y-98500000D03*
X111200000Y-98500000D03*
X106675000Y-99150000D03*
X117325000Y-97050000D03*
%TO.N,/THRU*%
X111200000Y-104900000D03*
X113700000Y-104900000D03*
X112475000Y-104225000D03*
%TO.N,GND*%
X118800000Y-104900000D03*
X117575000Y-104225000D03*
X116300000Y-104900000D03*
X117835000Y-102970000D03*
X107100000Y-104700000D03*
%TO.N,+5V*%
X118800000Y-98600000D03*
X125844717Y-55335796D03*
X104144537Y-55500000D03*
X103597468Y-96182276D03*
X117625000Y-99175000D03*
X116270000Y-98530000D03*
X117835000Y-100430000D03*
%TO.N,Net-(D1-Pad2)*%
X106350000Y-53400000D03*
%TO.N,Net-(D2-Pad2)*%
X123748179Y-53250000D03*
%TD*%
D21*
%TO.N,/OUT*%
X126650011Y-57524999D02*
X126925010Y-57250000D01*
X126650011Y-93400011D02*
X126650011Y-57524999D01*
X128000000Y-94750000D02*
X126650011Y-93400011D01*
X112200000Y-100395000D02*
X112205000Y-100395000D01*
X112205000Y-100395000D02*
X112300000Y-100300000D01*
X112300000Y-100300000D02*
X112300000Y-98000000D01*
X112300000Y-98000000D02*
X113975010Y-96324990D01*
X113975010Y-96324990D02*
X116124990Y-96324990D01*
%TO.N,/IN*%
X106650000Y-70850000D02*
X106650000Y-99125000D01*
X115000000Y-62500000D02*
X106650000Y-70850000D01*
X106650000Y-99125000D02*
X106675000Y-99150000D01*
X113800000Y-98500000D02*
X115250000Y-97050000D01*
X115250000Y-97050000D02*
X117325000Y-97050000D01*
%TO.N,/THRU*%
X112475000Y-103260000D02*
X112185000Y-102970000D01*
X112475000Y-104225000D02*
X112475000Y-103260000D01*
%TO.N,GND*%
X117600000Y-103205000D02*
X117600000Y-104200000D01*
X117600000Y-104200000D02*
X117575000Y-104225000D01*
X116800000Y-106400000D02*
X117575000Y-105625000D01*
X108800000Y-106400000D02*
X116800000Y-106400000D01*
X107100000Y-104700000D02*
X108800000Y-106400000D01*
X117575000Y-105625000D02*
X117575000Y-104225000D01*
X117835000Y-102970000D02*
X117600000Y-103205000D01*
X114600000Y-50600000D02*
X115000000Y-51000000D01*
X114100000Y-50600000D02*
X114600000Y-50600000D01*
X115400000Y-50600000D02*
X115900000Y-50600000D01*
X115000000Y-51000000D02*
X115400000Y-50600000D01*
X107100000Y-97526997D02*
X108025000Y-98451997D01*
X108025000Y-103775000D02*
X107100000Y-104700000D01*
X107900000Y-82900000D02*
X107100000Y-83700000D01*
X111500000Y-82900000D02*
X107900000Y-82900000D01*
X121575001Y-72824999D02*
X111500000Y-82900000D01*
X121575001Y-59343999D02*
X121575001Y-72824999D01*
X107100000Y-83700000D02*
X107100000Y-97526997D01*
X115000000Y-52768998D02*
X121575001Y-59343999D01*
X115000000Y-51000000D02*
X115000000Y-52768998D01*
X108025000Y-98451997D02*
X108025000Y-101325000D01*
X108025000Y-101325000D02*
X108025000Y-103775000D01*
X104362500Y-100175000D02*
X104187500Y-100000000D01*
X105800000Y-100175000D02*
X104362500Y-100175000D01*
X106950000Y-101325000D02*
X105800000Y-100175000D01*
X108025000Y-101325000D02*
X106950000Y-101325000D01*
%TO.N,+5V*%
X125680513Y-55500000D02*
X125844717Y-55335796D01*
X104144537Y-55500000D02*
X103597468Y-56047069D01*
X103597468Y-56047069D02*
X103597468Y-96182276D01*
X126200000Y-55691079D02*
X125844717Y-55335796D01*
X126200000Y-95750000D02*
X126200000Y-55691079D01*
X121125000Y-100225000D02*
X121725000Y-100225000D01*
X121725000Y-100225000D02*
X126200000Y-95750000D01*
X121120000Y-100220000D02*
X121125000Y-100225000D01*
X117625000Y-100220000D02*
X121120000Y-100220000D01*
X117835000Y-100430000D02*
X117625000Y-100220000D01*
X117675000Y-99225000D02*
X117625000Y-99175000D01*
X117675000Y-100270000D02*
X117675000Y-99225000D01*
X117835000Y-100430000D02*
X117675000Y-100270000D01*
%TO.N,Net-(D1-Pad2)*%
X106200000Y-53400000D02*
X106350000Y-53400000D01*
X110400000Y-50600000D02*
X110900000Y-50600000D01*
X107600000Y-53400000D02*
X110400000Y-50600000D01*
X106350000Y-53400000D02*
X107600000Y-53400000D01*
%TO.N,Net-(D2-Pad2)*%
X122350000Y-53250000D02*
X123748179Y-53250000D01*
X119700000Y-50600000D02*
X122350000Y-53250000D01*
X119100000Y-50600000D02*
X119700000Y-50600000D01*
%TD*%
M02*
