%TF.GenerationSoftware,KiCad,Pcbnew,5.1.6-c6e7f7d~87~ubuntu20.04.1*%
%TF.CreationDate,2020-08-20T18:56:20-06:00*%
%TF.ProjectId,decade,64656361-6465-42e6-9b69-6361645f7063,rev?*%
%TF.SameCoordinates,Original*%
%TF.FileFunction,Paste,Top*%
%TF.FilePolarity,Positive*%
%FSLAX46Y46*%
G04 Gerber Fmt 4.6, Leading zero omitted, Abs format (unit mm)*
G04 Created by KiCad (PCBNEW 5.1.6-c6e7f7d~87~ubuntu20.04.1) date 2020-08-20 18:56:20*
%MOMM*%
%LPD*%
G01*
G04 APERTURE LIST*
%ADD10R,1.900000X1.500000*%
%ADD11R,1.350000X0.400000*%
%ADD12R,1.270000X2.290000*%
G04 APERTURE END LIST*
D10*
%TO.C,J3*%
X101487500Y-101500000D03*
D11*
X104187500Y-102500000D03*
X104187500Y-103150000D03*
X104187500Y-103800000D03*
X104187500Y-101200000D03*
X104187500Y-101850000D03*
D10*
X101487500Y-103500000D03*
%TD*%
%TO.C,R11*%
G36*
G01*
X126643934Y-51510051D02*
X125760051Y-52393935D01*
G75*
G02*
X125406497Y-52393935I-176777J176777D01*
G01*
X124752423Y-51739861D01*
G75*
G02*
X124752423Y-51386307I176777J176777D01*
G01*
X125636307Y-50502423D01*
G75*
G02*
X125989861Y-50502423I176777J-176777D01*
G01*
X126643935Y-51156497D01*
G75*
G02*
X126643935Y-51510051I-176777J-176777D01*
G01*
G37*
G36*
G01*
X128747576Y-53613693D02*
X127863693Y-54497577D01*
G75*
G02*
X127510139Y-54497577I-176777J176777D01*
G01*
X126856065Y-53843503D01*
G75*
G02*
X126856065Y-53489949I176777J176777D01*
G01*
X127739949Y-52606065D01*
G75*
G02*
X128093503Y-52606065I176777J-176777D01*
G01*
X128747577Y-53260139D01*
G75*
G02*
X128747577Y-53613693I-176777J-176777D01*
G01*
G37*
%TD*%
%TO.C,R10*%
G36*
G01*
X104239949Y-52393934D02*
X103356065Y-51510051D01*
G75*
G02*
X103356065Y-51156497I176777J176777D01*
G01*
X104010139Y-50502423D01*
G75*
G02*
X104363693Y-50502423I176777J-176777D01*
G01*
X105247577Y-51386307D01*
G75*
G02*
X105247577Y-51739861I-176777J-176777D01*
G01*
X104593503Y-52393935D01*
G75*
G02*
X104239949Y-52393935I-176777J176777D01*
G01*
G37*
G36*
G01*
X102136307Y-54497576D02*
X101252423Y-53613693D01*
G75*
G02*
X101252423Y-53260139I176777J176777D01*
G01*
X101906497Y-52606065D01*
G75*
G02*
X102260051Y-52606065I176777J-176777D01*
G01*
X103143935Y-53489949D01*
G75*
G02*
X103143935Y-53843503I-176777J-176777D01*
G01*
X102489861Y-54497577D01*
G75*
G02*
X102136307Y-54497577I-176777J176777D01*
G01*
G37*
%TD*%
D12*
%TO.C,J1*%
X118810000Y-104225000D03*
X116270000Y-104225000D03*
X113730000Y-104225000D03*
X111190000Y-104225000D03*
X118810000Y-99175000D03*
X116270000Y-99175000D03*
X113730000Y-99175000D03*
X111190000Y-99175000D03*
%TD*%
M02*
